<svg width="52" height="52" viewBox="0 0 52 52" fill="none" xmlns="http://www.w3.org/2000/svg">
<path d="M25.5042 51.6813C18.7424 51.6737 12.2598 48.99 7.47845 44.2189C2.69713 39.4479 0.00762323 32.9792 0 26.232C0.00762323 19.4848 2.69713 13.0161 7.47845 8.24513C12.2598 3.47412 18.7424 0.790413 25.5042 0.782806C32.266 0.790413 38.7487 3.47412 43.53 8.24513C48.3114 13.0161 51.0008 19.4848 51.0085 26.232C51.0008 32.9792 48.3114 39.4479 43.53 44.2189C38.7487 48.99 32.266 51.6737 25.5042 51.6813ZM25.5042 2.99575C19.3294 3.00146 13.4089 5.45117 9.04198 9.80737C4.67501 14.1636 2.21819 20.0704 2.21056 26.232C2.21819 32.3923 4.67402 38.2982 9.03943 42.6542C13.4048 47.0102 19.3234 49.4607 25.497 49.4683C31.6707 49.4607 37.5892 47.0102 41.9546 42.6542C46.32 38.2982 48.7759 32.3923 48.7835 26.232C48.7759 20.0729 46.321 14.1683 41.9572 9.81246C37.5933 5.45667 31.6766 3.00526 25.5042 2.99575Z" fill="#6A1AB7"/>
</svg>
