<svg width="52" height="52" viewBox="0 0 52 52" fill="none" xmlns="http://www.w3.org/2000/svg">
<path d="M25.5042 51.7872C18.7424 51.7796 12.2598 49.0959 7.47845 44.3249C2.69713 39.5539 0.00762323 33.0852 0 26.3379C0.00762323 19.5907 2.69713 13.1221 7.47845 8.35108C12.2598 3.58007 18.7424 0.896363 25.5042 0.888756C32.266 0.896363 38.7487 3.58007 43.53 8.35108C48.3114 13.1221 51.0008 19.5907 51.0085 26.3379C51.0008 33.0852 48.3114 39.5539 43.53 44.3249C38.7487 49.0959 32.266 51.7796 25.5042 51.7872ZM25.5042 3.1017C19.3294 3.10741 13.4089 5.55712 9.04198 9.91332C4.67501 14.2695 2.21819 20.1764 2.21056 26.3379C2.21819 32.4982 4.67402 38.4041 9.03943 42.7601C13.4048 47.1161 19.3234 49.5667 25.497 49.5743C31.6707 49.5667 37.5892 47.1161 41.9546 42.7601C46.32 38.4041 48.7759 32.4982 48.7835 26.3379C48.7759 20.1789 46.321 14.2742 41.9572 9.91841C37.5933 5.56262 31.6766 3.11121 25.5042 3.1017Z" fill="#6A1AB7"/>
</svg>
