<svg width="647" height="450" viewBox="0 0 647 450" fill="none" xmlns="http://www.w3.org/2000/svg">
<path d="M242.568 445.417C238.732 444.111 235.008 442.495 231.435 440.586C198.635 423.064 187.638 388.161 175.992 351.211C167.805 325.246 159.342 298.391 142.618 278.009C126.559 258.439 103.594 245.85 81.3881 233.651C69.2885 227.021 56.7794 220.163 45.3991 212.219C11.0388 188.231 -12.4935 142.807 9.40053 111.264C26.2115 87.0464 60.5827 84.3961 79.5712 84.9708C87.1488 85.1994 94.8692 85.834 102.34 86.4487C120.272 87.9227 138.813 89.4495 156.378 85.3911C181.476 79.5809 202.146 63.0578 222.127 47.08C233.489 37.9492 245.25 28.5889 257.82 21.103C295.28 -1.20396 344.968 -5.23382 390.748 10.3256C429.2 23.394 460.279 48.2889 478.268 80.4277C486.109 94.4608 491.991 109.98 497.679 125.003C508.468 153.493 518.653 180.406 541.222 198.973C553.205 208.835 567.838 215.254 581.979 221.465C588.898 224.507 596.056 227.646 602.861 231.169C618.109 239.055 644.001 256.324 646.169 283.378C648.824 316.558 611.708 341.645 575.367 344.259C560.469 345.327 545.268 344.083 530.57 342.839C511.434 341.264 491.639 339.636 472.64 343.199C437.526 349.811 408.852 373.09 381.115 395.608C373.827 401.527 366.296 407.623 358.768 413.347C339.158 428.258 288.66 461.082 242.568 445.417ZM389.939 12.5841C344.833 -2.7463 295.89 1.20403 259.03 23.1547C246.604 30.5593 234.912 39.9106 223.607 48.947C203.421 65.0907 182.55 81.7893 156.902 87.7129C138.979 91.8527 120.25 90.3189 102.126 88.8282C94.6872 88.2163 86.9988 87.5846 79.5001 87.3665C60.993 86.8093 27.5426 89.3502 11.3667 112.647C-9.68715 143.006 13.3526 186.987 46.7187 210.305C57.9854 218.194 70.4452 225.003 82.4905 231.597C104.906 243.885 128.088 256.587 144.445 276.519C161.466 297.269 170.002 324.344 178.253 350.534C189.75 387.003 200.598 421.466 232.53 438.506C235.995 440.357 239.605 441.924 243.325 443.19C288.314 458.48 337.982 426.153 357.252 411.541C364.737 405.867 372.266 399.754 379.542 393.847C407.506 371.147 436.421 347.665 472.134 340.948C491.429 337.315 511.384 338.957 530.688 340.548C545.302 341.747 560.412 342.993 575.124 341.936C610.312 339.409 646.275 315.359 643.728 283.588C641.579 256.719 613.629 239.481 601.719 233.314C594.983 229.831 587.862 226.704 580.977 223.682C566.678 217.402 551.898 210.908 539.648 200.834C516.576 181.851 505.802 153.391 495.382 125.854C489.717 110.937 483.877 95.4642 476.119 81.5977C458.434 49.9516 427.818 25.4661 389.937 12.5914L389.939 12.5841Z" fill="#6A1AB7"/>
</svg>
